<?xml version="1.0" standalone="no"?>
<!DOCTYPE svg PUBLIC "-//W3C//DTD SVG 20010904//EN"
 "http://www.w3.org/TR/2001/REC-SVG-20010904/DTD/svg10.dtd">
<svg version="1.0" xmlns="http://www.w3.org/2000/svg"
 width="300.000000pt" height="225.000000pt" viewBox="0 0 300.000000 225.000000"
 preserveAspectRatio="xMidYMid meet">
<metadata>
Created by potrace 1.10, written by Peter Selinger 2001-2011
</metadata>
<g transform="translate(0.000000,225.000000) scale(0.100000,-0.100000)"
fill="#000000" stroke="none">
<path d="M1342 1159 l3 -472 90 -33 c50 -18 96 -33 102 -33 10 -1 13 93 15
421 3 400 4 423 21 426 10 2 27 -4 38 -14 17 -16 19 -32 19 -201 l0 -184 35
-15 c75 -31 142 -7 177 64 19 39 23 63 23 137 0 81 -3 95 -30 144 -28 52 -75
94 -138 127 -26 14 -330 104 -349 104 -5 0 -7 -212 -6 -471z"/>
<path d="M1115 996 c-189 -70 -222 -85 -249 -115 -24 -26 -15 -65 20 -87 63
-42 244 -73 348 -60 l56 7 0 55 c0 30 -3 54 -7 54 -3 0 -40 -12 -81 -26 -55
-19 -84 -24 -114 -19 -66 12 -44 33 87 84 l120 46 3 63 c2 34 -1 62 -5 61 -4
0 -84 -29 -178 -63z"/>
<path d="M1725 999 c-27 -4 -69 -13 -92 -20 l-43 -12 0 -64 c0 -58 2 -65 18
-60 9 3 64 22 122 42 58 20 123 38 146 42 48 6 91 -11 75 -31 -6 -7 -89 -41
-186 -76 l-175 -63 0 -62 0 -62 246 88 c249 90 298 113 309 150 28 86 -220
162 -420 128z"/>
</g>
</svg>
